<?xml version="1.0" standalone="no"?>
<!DOCTYPE svg PUBLIC "-//W3C//DTD SVG 20010904//EN"
 "http://www.w3.org/TR/2001/REC-SVG-20010904/DTD/svg10.dtd">
<svg version="1.0" xmlns="http://www.w3.org/2000/svg"
 width="600.000000pt" height="600.000000pt" viewBox="0 0 600.000000 600.000000"
 preserveAspectRatio="xMidYMid meet">

<g transform="translate(0.000000,600.000000) scale(0.100000,-0.100000)"
fill="#000000" stroke="none">
<path d="M2977 4578 c-22 -17 -99 -183 -136 -293 -63 -190 -81 -345 -81 -696
l0 -249 -59 0 c-105 0 -122 -29 -141 -235 -7 -66 -15 -123 -18 -126 -7 -7
-414 -109 -433 -109 -5 0 -9 43 -9 96 0 136 2 134 -128 134 -71 0 -112 -4
-120 -12 -8 -8 -12 -56 -12 -149 l0 -137 -197 -48 c-206 -49 -244 -63 -242
-92 0 -9 24 -75 53 -147 l52 -130 627 -3 627 -2 0 -128 0 -127 -341 -175
c-187 -96 -345 -180 -351 -187 -15 -19 -11 -224 6 -241 11 -11 75 0 367 62
195 42 364 77 377 78 20 3 32 -12 87 -116 35 -66 70 -123 79 -128 29 -16 50 9
114 131 56 107 66 120 85 116 12 -3 182 -39 377 -81 l355 -75 17 22 c23 28 26
209 4 231 -8 8 -167 93 -355 189 l-341 174 0 127 0 128 628 2 627 3 52 130
c29 72 52 138 52 147 1 29 -37 44 -241 93 l-198 47 0 137 c0 93 -4 141 -12
149 -8 8 -49 12 -120 12 -130 0 -128 2 -128 -134 0 -70 -3 -96 -12 -96 -7 0
-107 24 -223 53 l-210 53 -13 130 c-17 167 -18 171 -52 205 -25 25 -36 29 -88
29 l-60 0 -5 323 c-4 235 -10 345 -21 407 -43 226 -167 520 -220 520 -1 0 -10
-6 -19 -12z m71 -230 c44 -113 66 -191 88 -313 22 -127 37 -115 -137 -115
l-151 0 6 48 c13 92 38 207 62 280 30 90 77 202 85 202 3 0 25 -46 47 -102z
m110 -793 c2 -208 5 -281 15 -287 6 -4 44 -8 84 -8 59 0 74 -3 81 -17 5 -10
15 -81 21 -158 7 -77 15 -148 17 -157 4 -12 26 -23 62 -33 31 -9 75 -20 96
-26 l39 -11 -87 -87 c-89 -90 -104 -121 -66 -141 28 -15 40 -6 154 108 l98
100 57 -15 c31 -8 74 -19 95 -24 l39 -11 -57 -57 c-44 -44 -57 -64 -54 -82 2
-18 10 -25 33 -27 26 -2 41 8 103 71 l73 74 267 -66 c147 -36 269 -66 271 -67
1 -2 -12 -41 -29 -88 l-33 -86 -626 0 c-474 0 -630 -3 -639 -12 -8 -8 -12 -65
-12 -190 l0 -178 29 -18 c16 -9 173 -91 350 -182 l321 -165 0 -52 c0 -30 -5
-53 -10 -53 -6 0 -170 34 -366 75 -195 42 -359 73 -364 70 -5 -3 -33 -51 -62
-105 -29 -55 -55 -100 -58 -100 -3 0 -27 43 -54 95 -27 52 -55 100 -61 105 -9
7 -121 -12 -369 -65 -196 -41 -361 -75 -366 -75 -6 0 -10 24 -10 53 l0 52 332
170 c182 94 342 178 355 188 22 18 23 22 23 187 0 140 -3 171 -16 184 -14 14
-86 16 -642 16 l-628 0 -32 86 c-18 48 -31 87 -30 88 3 2 428 106 515 126 29
7 36 3 104 -66 73 -73 102 -87 127 -62 22 22 13 42 -45 100 -40 40 -52 59 -42
62 8 3 50 14 94 25 l80 20 111 -109 c61 -61 116 -110 122 -110 16 0 42 29 42
47 0 9 -39 55 -87 104 -47 49 -85 91 -82 93 2 2 39 11 81 20 43 10 84 23 91
31 9 9 19 65 27 157 18 198 12 188 109 188 69 0 82 3 91 19 6 12 10 123 10
291 l0 271 153 -3 152 -3 3 -280z m-1148 -624 l0 -88 -31 -7 c-60 -12 -59 -14
-59 89 l0 95 45 0 45 0 0 -89z m2070 -10 l0 -98 -45 10 -45 10 0 89 0 88 45 0
45 0 0 -99z"/>
<path d="M2914 3145 c-60 -36 -74 -73 -91 -248 -18 -178 -12 -212 47 -268 80
-77 204 -72 274 11 46 55 50 90 33 264 -13 136 -19 162 -40 195 -48 72 -146
92 -223 46z m126 -65 c11 -6 25 -20 31 -31 16 -31 41 -294 30 -322 -23 -59
-109 -86 -160 -51 -45 32 -50 66 -35 209 7 72 14 136 14 143 0 7 11 24 25 37
25 26 63 32 95 15z"/>
<path d="M2971 2246 c-8 -9 -11 -75 -9 -216 3 -181 5 -204 21 -214 12 -8 22
-8 35 0 15 10 17 33 20 214 3 209 -1 230 -38 230 -10 0 -23 -6 -29 -14z"/>
</g>
</svg>
