<svg width="30" height="29" viewBox="0 0 30 29" fill="none" xmlns="http://www.w3.org/2000/svg">
<g clip-path="url(#clip0_37_16)">
<path fill-rule="evenodd" clip-rule="evenodd" d="M27.9125 1.58739L27.8652 1.53978C27.8333 1.50783 27.8016 1.50783 27.7697 1.53978L27.7537 1.58739L27.6748 1.98391C27.6321 2.17435 27.574 2.3488 27.5003 2.50728L27.4208 2.68174L27.1354 3.01467L26.7386 3.3163C26.5697 3.42196 26.4425 3.49076 26.3584 3.52272C25.7551 3.79761 25.4114 3.97174 25.3266 4.04576C24.8929 4.43706 24.6552 4.89196 24.6132 5.40978C24.5916 5.74859 24.634 6.11315 24.74 6.50413L24.9464 7.04348C25.084 6.96913 25.2158 6.92185 25.3426 6.90065C25.5546 6.85826 25.7655 6.85826 25.9775 6.90065C26.0088 6.91109 26.0463 6.92152 26.0884 6.93261C26.1839 6.78456 26.2997 6.65739 26.4373 6.55174C26.839 6.23446 27.1511 5.9488 27.3735 5.69511C27.6167 5.40946 27.7964 5.09772 27.9122 4.75924L28.0707 4.23619C28.0707 4.22543 28.1026 4.05619 28.1662 3.72848C28.1982 3.32674 28.2083 2.97783 28.1982 2.68174C28.1662 2.3113 28.1134 2.03152 28.0397 1.84076L27.9125 1.58739ZM12.5564 21.4138C12.8845 21.2028 13.2226 21.1125 13.5722 21.1445C13.7518 21.1445 13.9051 21.2028 14.032 21.3189C14.2009 21.4565 14.2384 21.6046 14.1428 21.763C14.0792 21.8687 13.9583 21.9427 13.7779 21.9848C13.7039 21.9955 13.6142 22.0011 13.5086 22.0011C13.1486 21.9691 12.8476 22.1488 12.6043 22.5401C12.393 22.8786 12.3291 23.2063 12.4139 23.5236C12.4667 23.788 12.6464 23.9892 12.9533 24.1262C13.0909 24.2005 13.2285 24.2426 13.3661 24.2534L13.5559 24.2853L13.7463 24.2693C14.0003 24.2377 14.212 24.1585 14.3812 24.0316C14.5817 23.8732 14.7141 23.7196 14.778 23.5715C14.9365 23.2758 14.9786 22.9849 14.9042 22.6992C14.8309 22.4879 14.7304 22.3187 14.6036 22.1915L14.4604 22.0487L14.3336 21.9535L14.2067 21.8107L14.5557 21.8739L14.778 21.9848C14.9893 22.0908 15.1641 22.2809 15.3011 22.5561C15.5023 22.9474 15.5023 23.3703 15.3011 23.8252C15.2062 24.0685 15.0366 24.3065 14.7934 24.5387C14.5501 24.7715 14.2328 24.9192 13.8418 24.9825L13.5399 25.0148C13.4029 25.0148 13.3022 25.0092 13.2386 24.9985C13.0697 24.988 12.8636 24.9355 12.6203 24.84C12.3878 24.7343 12.1866 24.5967 12.0171 24.4275C11.8273 24.227 11.6949 23.9941 11.6209 23.7293C11.4833 23.1688 11.5733 22.6193 11.8902 22.08C12.0705 21.8051 12.292 21.583 12.5564 21.4138ZM20.5201 16.0529L19.1401 19.003C18.844 19.7853 18.6536 20.341 18.5695 20.6684C18.4948 20.9433 18.4472 21.2234 18.4263 21.5087C18.4054 21.6463 18.411 21.7415 18.4423 21.7943L18.4742 21.826C18.4843 21.8367 18.501 21.8367 18.5218 21.826H18.5695L18.7592 21.7943L18.7912 21.7627C18.9396 21.7308 19.1085 21.5723 19.2989 21.287C19.6377 20.8425 19.9759 20.2135 20.3147 19.3992L20.7745 18.2892C21.0807 17.5171 21.245 17.1101 21.2662 17.0677L24.7723 9.34337C24.9836 8.88848 25.222 8.48152 25.4861 8.12217C25.6446 7.91087 25.7923 7.75206 25.9299 7.64641C25.8771 7.48793 25.893 7.31837 25.9775 7.13869C25.9566 7.13869 25.94 7.13869 25.9299 7.13869C25.5389 7.13869 25.1682 7.31837 24.8192 7.67772C24.4071 8.09022 23.9786 8.7988 23.5348 9.80348C23.5028 9.86674 23.2648 10.4377 22.821 11.5164L21.155 14.7678C21.0914 14.895 20.8798 15.3232 20.5201 16.0529ZM3.81565 13.198C3.73087 14.2767 3.98522 15.1435 4.57674 15.7992C4.76783 16.0213 4.98435 16.2225 5.22696 16.4022C5.36456 16.4974 5.54489 16.6138 5.7663 16.7511L6.30565 17.084L6.40119 17.1792L6.27435 17.2109C6.11587 17.2317 5.88826 17.2109 5.59217 17.1476C5.33815 17.0733 5.11576 16.9891 4.92598 16.8939C4.62989 16.7671 4.3387 16.5714 4.05337 16.307C3.6725 15.9473 3.39239 15.5299 3.21206 15.0538C2.99033 14.4724 2.91076 13.8329 2.97435 13.1348C2.97435 13.0604 3.00565 12.9867 3.06924 12.9124C3.15402 12.8067 3.27565 12.7643 3.43413 12.7852C3.59261 12.8175 3.70348 12.8863 3.76706 12.9916C3.81011 13.0657 3.82641 13.1345 3.81565 13.198ZM6.78239 7.37674C6.64478 7.39761 6.56 7.40315 6.52837 7.39239C6.15826 7.36076 5.85696 7.54043 5.62413 7.93174C5.39163 8.25946 5.32283 8.5875 5.41837 8.91554C5.4813 9.19043 5.66163 9.39685 5.95772 9.5338C6.15826 9.60783 6.29587 9.64989 6.36989 9.66065L6.56033 9.69261L6.75076 9.67663C6.98326 9.645 7.19456 9.56054 7.385 9.42293C7.56533 9.28533 7.69706 9.13728 7.78185 8.9788C7.95141 8.68304 7.99315 8.39217 7.9087 8.10652C7.83467 7.8737 7.73424 7.70478 7.60739 7.5988L7.46456 7.44033L7.33706 7.36076L7.21022 7.21793L7.40065 7.23359L7.55913 7.2812L7.78152 7.37641C8.00326 7.50359 8.17837 7.69891 8.30489 7.96337C8.50609 8.34391 8.50609 8.76717 8.30489 9.2325C8.20935 9.47576 8.04043 9.7138 7.79717 9.94598C7.52196 10.1788 7.205 10.3265 6.845 10.3898L6.54369 10.4221L6.24239 10.4058C6.09402 10.3849 5.88826 10.3265 5.62348 10.2313C5.42293 10.1573 5.22663 10.0252 5.03685 9.83478C4.84641 9.64467 4.7088 9.40663 4.62402 9.1213C4.4763 8.56076 4.5712 8.01619 4.90935 7.48761C5.08967 7.20196 5.3062 6.97467 5.56022 6.80543C5.90913 6.5938 6.24728 6.50935 6.57533 6.55174C6.755 6.55174 6.90826 6.61011 7.03511 6.7262C7.20467 6.85337 7.24152 6.99554 7.14663 7.15435C7.0837 7.28152 6.96206 7.35587 6.78239 7.37674ZM16.9508 11.1518C16.8761 11.1623 16.7864 11.1675 16.6814 11.1675C16.3318 11.1359 16.0305 11.3155 15.7765 11.7068C15.5659 12.045 15.502 12.3727 15.5867 12.6903C15.6396 12.9551 15.8192 13.1557 16.1261 13.2933C16.263 13.3673 16.4007 13.4093 16.5383 13.4201L16.7287 13.4521H16.9191C17.1516 13.4201 17.3629 13.3357 17.5534 13.1984C17.7653 13.0079 17.8974 12.8543 17.9502 12.7383C18.1087 12.4422 18.1508 12.1513 18.0771 11.866C18.003 11.6547 17.9026 11.4851 17.7758 11.3583L17.3629 10.9937L17.5693 11.0093L17.7278 11.041L17.9502 11.1525C18.1726 11.2793 18.3471 11.4698 18.4736 11.7235C18.6748 12.1145 18.6748 12.5429 18.4736 13.0079C18.378 13.2509 18.2091 13.4837 17.9659 13.7061C17.7226 13.9282 17.4053 14.0814 17.0137 14.1659L16.7124 14.1975L16.4111 14.1659C16.2415 14.1554 16.0361 14.1026 15.7928 14.0074C15.5597 13.9014 15.3591 13.7645 15.1896 13.5949C14.9783 13.3728 14.8462 13.14 14.7927 12.8971C14.6342 12.3365 14.7239 11.7867 15.0627 11.2471C15.2316 10.9722 15.4488 10.7504 15.7129 10.5812C16.0511 10.3696 16.3951 10.2796 16.744 10.3112C16.9553 10.3435 17.1089 10.4012 17.2038 10.4857C17.3734 10.6337 17.4102 10.7817 17.3153 10.9298C17.242 11.0566 17.1197 11.131 16.9508 11.1518ZM16.5699 5.90185C17.3845 6.45196 18.0826 7.01739 18.664 7.5988C19.383 8.29696 19.9703 9.03685 20.4249 9.81978C20.6046 10.0943 20.7683 10.4488 20.9166 10.8822C21.1071 11.4111 21.2078 11.908 21.2179 12.373C21.2179 12.3838 21.2179 12.3942 21.2179 12.4053L22.8683 9.43891C23.4076 8.445 23.9574 7.73152 24.5179 7.29783C24.5809 7.25543 24.6448 7.21859 24.7084 7.18696C24.5499 7.01739 24.4172 6.85402 24.3115 6.69522C24.0582 6.29348 23.9046 5.86467 23.8517 5.41011C23.8097 5.08239 23.8465 4.73869 23.9626 4.37935C24.0895 3.97761 24.3115 3.60783 24.6288 3.26902C24.7984 3.09978 25.2001 2.83565 25.8343 2.47598L26.0884 2.3175L26.2628 2.14304C26.3258 2.05826 26.3584 2.0113 26.3584 2.00022L26.4692 1.25478C26.5221 0.937499 26.6121 0.689021 26.7386 0.509347C26.9082 0.276847 27.1253 0.134021 27.3895 0.0811948C27.4315 0.0603253 27.4945 0.0495644 27.5792 0.0495644L28.0077 0.096847L28.4359 0.239673L28.6263 0.366847C28.7003 0.408912 28.8167 0.509673 28.9752 0.668151C29.0809 0.784238 29.2133 1.00109 29.3721 1.31837C29.5097 1.64641 29.6046 2.06935 29.6574 2.5875C29.6893 3.04239 29.6841 3.47576 29.6414 3.88793C29.6313 4.11 29.5941 4.34804 29.5305 4.60141L29.3241 5.29956C29.2501 5.50043 29.1396 5.73293 28.9912 5.99772L28.6739 6.50511L28.5311 6.66359C28.3299 6.9388 27.9497 7.29815 27.3891 7.74261C27.198 7.89065 26.9975 7.9963 26.7859 8.05989C26.765 8.07033 26.7438 8.07587 26.7223 8.07587C26.7122 8.23435 26.6802 8.42446 26.6274 8.64685C26.5318 9.06978 26.3789 9.51359 26.167 9.97924L22.1385 18.8602C21.8952 19.4524 21.7315 19.8329 21.6461 20.0022C21.2023 20.9648 20.7953 21.6942 20.4252 22.1912C20.1921 22.4449 20.0336 22.6089 19.9488 22.6829L19.6795 22.8893C19.6266 22.9846 19.5686 23.0899 19.505 23.2066C19.0713 24.0209 18.6425 24.7239 18.2199 25.3161C17.8716 25.8241 17.4428 26.3312 16.9354 26.8392C16.2265 27.5051 15.4814 27.9864 14.6988 28.2825C14.2439 28.4305 13.9958 28.5098 13.953 28.5202L13.1124 28.6471H12.2398C11.9437 28.6471 11.6365 28.6154 11.3196 28.5518C11.0023 28.5098 10.6853 28.4305 10.368 28.3141C9.99728 28.2085 9.66989 28.0552 9.38456 27.8543C8.99293 27.6007 8.70174 27.3042 8.51196 26.9658C8.30065 26.5852 8.21 26.1463 8.24196 25.6497C8.24196 25.5968 8.28467 25.38 8.36946 24.9991L8.97206 23.3498C9.12043 22.8845 9.19935 22.5352 9.21011 22.3024C9.24141 21.9962 9.16739 21.7317 8.98772 21.5093L8.84489 21.3509L8.63848 21.208C8.41609 21.0708 8.2475 20.986 8.13076 20.9543L6.89326 20.5738C6.27989 20.4258 5.80935 20.309 5.4813 20.2249C4.8888 20.0658 4.3762 19.8913 3.9425 19.7012C3.77293 19.6376 3.51956 19.5104 3.18141 19.3203C2.9163 19.1618 2.66815 18.9822 2.43565 18.781C2.04402 18.4428 1.6687 17.9511 1.30902 17.3061C0.716848 16.217 0.388804 15.0114 0.325543 13.6898C0.293587 12.3678 0.47913 11.0622 0.88087 9.77185C1.05043 9.18 1.31978 8.53467 1.68957 7.83652C2.03848 7.18109 2.46141 6.58337 2.95902 6.04435C3.48761 5.4525 4.085 4.96076 4.7512 4.56946C5.40728 4.16772 6.15304 3.87685 6.98848 3.69717C8.46859 3.37956 10.0977 3.42717 11.8739 3.84C12.7204 4.0513 13.5242 4.31576 14.2853 4.63304C15.0474 4.98163 15.8088 5.40456 16.5699 5.90185ZM13.6671 6.02837C12.9582 5.73228 12.2339 5.49424 11.4934 5.31489C9.96043 4.92359 8.55337 4.87598 7.27413 5.17206C6.57598 5.33054 5.97304 5.56337 5.46533 5.87022C4.93674 6.17674 4.45022 6.57326 4.00609 7.05978C3.24435 7.89522 2.64696 8.96315 2.21326 10.2639C2.02283 10.8874 1.89043 11.4639 1.81641 11.9925C1.74239 12.5847 1.71076 13.1557 1.72152 13.7058C1.75348 14.7845 2.01761 15.7937 2.51457 16.7351C2.77902 17.2109 3.065 17.5813 3.3712 17.8451L3.62522 18.0515L4.2125 18.4161L4.52978 18.5589C4.8787 18.7174 5.32837 18.871 5.87815 19.0187C6.185 19.1035 6.65 19.2303 7.27413 19.3996L8.68609 19.8753C9.29946 20.1714 9.73315 20.4995 9.98652 20.8588C10.1029 21.0704 10.1717 21.2028 10.1929 21.2553C10.2777 21.4986 10.3198 21.6417 10.3198 21.6838L10.3674 22.0963L10.3514 22.4928C10.3093 22.831 10.1877 23.2647 9.98652 23.7933C9.96565 23.8461 9.81696 24.2107 9.54272 24.8876L9.30467 25.5854L9.2887 25.8078C9.24663 26.3364 9.47391 26.7597 9.97087 27.077C10.4153 27.3518 10.9439 27.5527 11.5573 27.6796C12.6679 27.8909 13.6514 27.8488 14.508 27.5527C15.2271 27.3095 15.9092 26.9022 16.5542 26.3312C16.9772 25.9718 17.4161 25.5225 17.8713 24.9828C18.0298 24.7927 18.5108 24.1585 19.3146 23.0795L19.0452 23.1747L18.8708 23.2066L18.4739 23.2383C18.093 23.2174 17.7868 23.1065 17.5537 22.9053C17.3212 22.7149 17.1676 22.4397 17.0939 22.0807L17.0463 21.6998L17.0623 21.3825C17.0832 21.1073 17.1578 20.7375 17.2847 20.2725C17.4115 19.8388 17.6388 19.2362 17.9668 18.464L20.3783 13.9278C20.3362 13.8434 20.2935 13.7374 20.2514 13.6105C20.1458 13.1664 20.0502 12.8175 19.9654 12.5638C19.7541 11.834 19.4688 11.1783 19.1088 10.5968C18.3578 9.32804 17.2211 8.18576 15.6983 7.17098C15.0207 6.70533 14.3434 6.32478 13.6671 6.02837ZM12.7468 6.77413C12.9164 6.91141 12.9533 7.05946 12.8584 7.21793C12.7948 7.32359 12.6732 7.39761 12.4935 7.44C12.4188 7.45043 12.335 7.45598 12.2395 7.45598C11.8586 7.42435 11.5573 7.60402 11.3352 7.99533C11.1027 8.32304 11.0339 8.64554 11.1295 8.96283C11.1924 9.23804 11.3727 9.4438 11.6688 9.58109C11.8058 9.64467 11.9434 9.68674 12.081 9.70826L12.2714 9.73989L12.4618 9.72424C12.7051 9.69228 12.9167 9.61304 13.0961 9.48652C13.2973 9.32804 13.429 9.17446 13.4929 9.02641C13.6625 8.75152 13.7042 8.46098 13.6198 8.15413C13.5458 7.9425 13.4453 7.77326 13.3185 7.64641L13.1757 7.50359L13.0482 7.40837L12.9213 7.26554L13.1117 7.2812L13.2702 7.3288L13.4926 7.43967C13.7039 7.54533 13.8787 7.73576 14.016 8.01065C14.2165 8.39152 14.2165 8.81446 14.016 9.27978C13.9204 9.52304 13.7515 9.76109 13.5083 9.99326C13.265 10.2261 12.9477 10.3741 12.5561 10.4374L12.2548 10.4693L11.9535 10.4534C11.7839 10.4429 11.5785 10.3846 11.3346 10.2789C11.1021 10.1945 10.9064 10.0621 10.7479 9.88239C10.5575 9.69196 10.4199 9.45913 10.3351 9.18424C10.1874 8.6237 10.2823 8.07424 10.6204 7.53456C10.8008 7.24924 11.0173 7.02685 11.2713 6.86837C11.6095 6.65706 11.9476 6.56706 12.2864 6.59869C12.4664 6.59935 12.62 6.65772 12.7468 6.77413Z" fill="black"/>
</g>
<defs>
<clipPath id="clip0_37_16">
<rect width="30" height="28.6957" fill="white"/>
</clipPath>
</defs>
</svg>
