<svg width="30" height="23" viewBox="0 0 30 23" fill="none" xmlns="http://www.w3.org/2000/svg">
<g clip-path="url(#clip0_37_27)">
<path d="M18.4562 16.559H2.12603C1.56334 16.5584 1.02388 16.3346 0.625995 15.9367C0.228114 15.5388 0.00430053 14.9994 0.00366211 14.4367V2.1465C0.00430053 1.58384 0.228114 1.04436 0.625995 0.646485C1.02388 0.248603 1.56334 0.0247951 2.12603 0.0241623H21.6697C22.1344 0.0247103 22.5861 0.177501 22.9557 0.459151C23.3252 0.740807 23.5923 1.1358 23.7161 1.58367C23.7477 1.69932 23.7322 1.82277 23.6728 1.92689C23.6134 2.03102 23.5151 2.10734 23.3995 2.13898C23.2839 2.17062 23.1604 2.15503 23.0562 2.09565C22.9521 2.03633 22.8758 1.93796 22.8442 1.82237C22.7731 1.56542 22.6197 1.33887 22.4076 1.17738C22.1956 1.01587 21.9363 0.92832 21.6698 0.928117H2.12603C1.803 0.928479 1.49331 1.05696 1.26489 1.28537C1.03647 1.51378 0.907984 1.8235 0.907617 2.1465V14.4367C0.907984 14.7597 1.03647 15.0694 1.26489 15.2978C1.49331 15.5262 1.803 15.6547 2.12603 15.6551H18.4562C18.5761 15.6551 18.691 15.7027 18.7758 15.7875C18.8605 15.8722 18.9082 15.9872 18.9082 16.1071C18.9082 16.2269 18.8605 16.3419 18.7758 16.4267C18.691 16.5114 18.5761 16.559 18.4562 16.559Z" fill="black"/>
<path d="M11.8977 15.1025C12.2509 15.1025 12.5372 14.8162 12.5372 14.4631C12.5372 14.1099 12.2509 13.8236 11.8977 13.8236C11.5446 13.8236 11.2583 14.1099 11.2583 14.4631C11.2583 14.8162 11.5446 15.1025 11.8977 15.1025Z" fill="black"/>
<path d="M14.5187 18.8053H9.27716C9.20366 18.8053 9.13123 18.7873 9.0662 18.753C9.00118 18.7187 8.94553 18.669 8.90406 18.6084C8.86253 18.5477 8.83649 18.4777 8.82813 18.4047C8.81976 18.3316 8.82937 18.2577 8.85604 18.1892L9.73151 15.9427C9.76457 15.858 9.82242 15.7851 9.89762 15.7337C9.97276 15.6824 10.0616 15.6549 10.1526 15.6549H13.6432C13.7342 15.6549 13.8232 15.6824 13.8983 15.7337C13.9734 15.7851 14.0313 15.858 14.0643 15.9427L14.9398 18.1892C14.9665 18.2577 14.9761 18.3316 14.9677 18.4047C14.9594 18.4777 14.9333 18.5477 14.8919 18.6084C14.8503 18.669 14.7947 18.7187 14.7297 18.753C14.6646 18.7873 14.5923 18.8053 14.5187 18.8053ZM9.93841 17.9013H13.8575L13.3343 16.5589H10.4616L9.93841 17.9013Z" fill="black"/>
<path d="M17.3664 20.4411H6.42927C6.30939 20.4411 6.19441 20.3934 6.10967 20.3086C6.02492 20.2239 5.97729 20.1089 5.97729 19.9891V19.2986C5.97769 18.9281 6.12503 18.573 6.38701 18.311C6.64893 18.0491 7.00413 17.9017 7.37458 17.9014H16.4212C16.7916 17.9017 17.1468 18.0491 17.4087 18.3111C17.6706 18.573 17.818 18.9281 17.8184 19.2986V19.9891C17.8184 20.0484 17.8067 20.1072 17.784 20.162C17.7613 20.2169 17.728 20.2667 17.6861 20.3087C17.6441 20.3506 17.5942 20.384 17.5394 20.4067C17.4846 20.4294 17.4258 20.4411 17.3664 20.4411ZM6.88125 19.5371H16.9145V19.2986C16.9143 19.1678 16.8623 19.0424 16.7698 18.9499C16.6774 18.8575 16.5519 18.8054 16.4211 18.8053H7.37458C7.24379 18.8054 7.11837 18.8575 7.02588 18.9499C6.9334 19.0424 6.88142 19.1678 6.88125 19.2986V19.5371Z" fill="black"/>
<path d="M18.4563 13.2711H0.455712C0.396362 13.2711 0.337576 13.2595 0.282729 13.2368C0.227876 13.2141 0.178023 13.1809 0.136028 13.1389C0.0940282 13.097 0.0607005 13.0472 0.0379491 12.9924C0.015192 12.9376 0.00346327 12.8788 0.00341807 12.8194C0.00337852 12.7601 0.0150283 12.7013 0.0377062 12.6464C0.0603785 12.5916 0.0936384 12.5418 0.135576 12.4998C0.17752 12.4577 0.227322 12.4244 0.282141 12.4017C0.33696 12.3789 0.395729 12.3672 0.455079 12.3671H18.4563C18.5761 12.3671 18.6911 12.4147 18.7758 12.4995C18.8606 12.5843 18.9082 12.6993 18.9082 12.8191C18.9082 12.939 18.8606 13.054 18.7758 13.1387C18.6911 13.2235 18.5761 13.2711 18.4563 13.2711Z" fill="black"/>
<path d="M28.4985 22.2921H21.4597C21.0624 22.2916 20.6815 22.1336 20.4006 21.8527C20.1197 21.5718 19.9616 21.1909 19.9612 20.7937V4.70599C19.9616 4.3087 20.1197 3.92785 20.4006 3.64689C20.6815 3.36599 21.0624 3.20796 21.4597 3.20751H28.4985C28.8958 3.20796 29.2767 3.36599 29.5576 3.64689C29.8385 3.92785 29.9965 4.3087 29.9969 4.70599V20.7937C29.9965 21.191 29.8385 21.5718 29.5576 21.8527C29.2767 22.1336 28.8958 22.2916 28.4985 22.2921ZM21.4597 4.11147C21.302 4.11169 21.151 4.17435 21.0395 4.28582C20.928 4.39729 20.8654 4.54836 20.8651 4.70599V20.7937C20.8654 20.9513 20.928 21.1024 21.0395 21.2138C21.151 21.3253 21.302 21.388 21.4597 21.3881H28.4985C28.6561 21.388 28.8072 21.3253 28.9186 21.2138C29.0301 21.1024 29.0928 20.9512 29.093 20.7937V4.70599C29.0928 4.54836 29.0301 4.39729 28.9186 4.28582C28.8072 4.17435 28.6561 4.11169 28.4985 4.11147H21.4597Z" fill="black"/>
<path d="M27.8342 8.62175H22.1239C22.004 8.62175 21.889 8.57412 21.8042 8.48932C21.7195 8.40457 21.6719 8.2896 21.6719 8.16977V5.60881C21.6719 5.48898 21.7195 5.37401 21.8042 5.28926C21.889 5.20446 22.004 5.15683 22.1239 5.15683H27.8342C27.9541 5.15683 28.0691 5.20446 28.1539 5.28926C28.2386 5.37401 28.2862 5.48898 28.2862 5.60881V8.16977C28.2862 8.2896 28.2386 8.40457 28.1539 8.48932C28.0691 8.57412 27.9541 8.62175 27.8342 8.62175ZM22.5758 7.71779H27.3823V6.06079H22.5758V7.71779Z" fill="black"/>
<path d="M29.545 10.5906H20.4132C20.2933 10.5906 20.1784 10.5429 20.0936 10.4582C20.0088 10.3734 19.9612 10.2585 19.9612 10.1386C19.9612 10.0187 20.0088 9.90378 20.0936 9.81898C20.1784 9.73423 20.2933 9.68661 20.4132 9.68661H29.545C29.6649 9.68661 29.7798 9.73423 29.8646 9.81898C29.9493 9.90378 29.9969 10.0187 29.9969 10.1386C29.9969 10.2585 29.9493 10.3734 29.8646 10.4582C29.7798 10.5429 29.6649 10.5906 29.545 10.5906Z" fill="black"/>
<path d="M24.9791 16.2123C24.6785 16.2123 24.3846 16.1231 24.1346 15.9561C23.8846 15.789 23.6897 15.5516 23.5747 15.2739C23.4596 14.9961 23.4295 14.6904 23.4882 14.3956C23.5469 14.1007 23.6916 13.8298 23.9042 13.6172C24.1168 13.4046 24.3877 13.2599 24.6826 13.2012C24.9774 13.1425 25.2831 13.1727 25.5609 13.2877C25.8386 13.4028 26.076 13.5976 26.2431 13.8476C26.4101 14.0976 26.4992 14.3915 26.4992 14.6921C26.4988 15.0951 26.3385 15.4815 26.0535 15.7665C25.7686 16.0515 25.3822 16.2118 24.9791 16.2123ZM24.9791 14.076C24.8573 14.0759 24.7382 14.1121 24.6368 14.1798C24.5355 14.2475 24.4565 14.3437 24.4099 14.4563C24.3632 14.5689 24.351 14.6928 24.3748 14.8123C24.3986 14.9319 24.4573 15.0416 24.5434 15.1279C24.6296 15.214 24.7394 15.2727 24.8589 15.2965C24.9784 15.3202 25.1023 15.308 25.2149 15.2614C25.3275 15.2148 25.4238 15.1358 25.4914 15.0345C25.5592 14.9332 25.5953 14.814 25.5953 14.6921C25.5951 14.5288 25.5301 14.3721 25.4146 14.2567C25.2991 14.1411 25.1425 14.0762 24.9791 14.076Z" fill="black"/>
<path d="M27.8364 22.2921H22.1217C22.0488 22.2921 21.9769 22.2745 21.9123 22.2407C21.8477 22.2069 21.7922 22.158 21.7506 22.0981C21.709 22.0383 21.6824 21.9693 21.6733 21.8969C21.6641 21.8246 21.6726 21.7511 21.6979 21.6828L22.4775 19.5838C22.5096 19.4973 22.5674 19.4227 22.6432 19.37C22.719 19.3173 22.809 19.2892 22.9012 19.2892H27.0569C27.1491 19.2892 27.2392 19.3173 27.3149 19.37C27.3907 19.4227 27.4485 19.4973 27.4806 19.5838L28.2601 21.6828C28.2855 21.7511 28.294 21.8246 28.2848 21.8969C28.2757 21.9693 28.2491 22.0383 28.2075 22.0981C28.1659 22.158 28.1104 22.2069 28.0458 22.2407C27.9812 22.2745 27.9094 22.2921 27.8364 22.2921ZM22.7717 21.3881H27.1864L26.7426 20.1931H23.2155L22.7717 21.3881Z" fill="black"/>
<path d="M3.96322 10.0955C3.87383 10.0955 3.78644 10.069 3.7121 10.0193C3.63778 9.96966 3.57984 9.89904 3.54563 9.81644C3.51142 9.73384 3.50248 9.64299 3.51992 9.55531C3.53736 9.46763 3.58042 9.38712 3.64364 9.3239L9.72414 3.24339C9.80889 3.15859 9.92386 3.11102 10.0437 3.11102C10.1636 3.11102 10.2786 3.15859 10.3634 3.24339C10.4481 3.32813 10.4957 3.44311 10.4957 3.56299C10.4957 3.68288 10.4481 3.79779 10.3634 3.8826L4.28282 9.96311C4.24089 10.0051 4.19108 10.0385 4.13623 10.0612C4.08139 10.0839 4.02259 10.0955 3.96322 10.0955Z" fill="black"/>
<path d="M3.31722 6.56452C3.22783 6.56452 3.14044 6.53802 3.06611 6.48836C2.99178 6.4387 2.93385 6.36813 2.89964 6.28553C2.86543 6.20294 2.85648 6.11203 2.87392 6.02435C2.89136 5.93666 2.93442 5.85616 2.99764 5.79294L6.19326 2.59734C6.27801 2.51254 6.39298 2.46497 6.51287 2.46497C6.63275 2.46497 6.74773 2.5126 6.83247 2.59734C6.91722 2.68214 6.96485 2.79706 6.96485 2.91695C6.96485 3.03683 6.91722 3.15181 6.83242 3.23655L3.63681 6.4322C3.59488 6.47424 3.54507 6.50757 3.49022 6.53028C3.43538 6.55299 3.37659 6.56463 3.31722 6.56452Z" fill="black"/>
</g>
<defs>
<clipPath id="clip0_37_27">
<rect width="30" height="22.3164" fill="white"/>
</clipPath>
</defs>
</svg>
