<svg width="24" height="24" viewBox="0 0 24 24" fill="none" xmlns="http://www.w3.org/2000/svg">
<g clip-path="url(#clip0_36_3)">
<path d="M23.729 17.216V14.864C23.729 13.811 23.22 13.037 22.268 12.632C22.25 12.623 22.232 12.615 22.209 12.607V11.929C22.418 11.902 22.597 11.843 22.723 11.715C22.887 11.55 22.962 11.322 22.954 11.021C22.944 10.634 22.948 10.247 22.952 9.787C22.954 9.508 22.877 9.288 22.723 9.131C22.57 8.977 22.357 8.899 22.089 8.899C21.836 8.899 21.582 8.899 21.329 8.899V5.074C21.329 4.098 20.531 3.303 19.549 3.303H14.875V2.156C14.875 1.004 13.937 0.0649986 12.785 0.0649986H8.82504C7.67204 0.0649986 6.73504 1.003 6.73504 2.156V3.303H2.04904C1.06804 3.303 0.269043 4.098 0.269043 5.074V15.044C0.269043 16.02 1.06704 16.815 2.04904 16.815H14.579V20.16H11.921C10.943 20.16 10.149 20.956 10.149 21.933C10.149 22.91 10.944 23.705 11.921 23.705H14.738C14.896 23.705 15.047 23.677 15.193 23.638C15.412 23.797 15.738 23.934 16.228 23.934H22.078C23.111 23.934 23.728 23.313 23.728 22.274V17.272C23.729 17.262 23.729 17.252 23.729 17.243C23.73 17.234 23.73 17.225 23.729 17.216ZM22.143 9.675C22.143 9.676 22.154 9.702 22.153 9.851C22.15 10.247 22.146 10.645 22.156 11.041C22.157 11.1 22.153 11.134 22.155 11.145C22.137 11.151 22.106 11.171 22.033 11.155C21.959 11.154 21.885 11.155 21.812 11.154C21.811 11.154 21.811 11.154 21.81 11.154C21.809 11.154 21.809 11.154 21.808 11.154C21.199 11.147 20.59 11.146 19.981 11.149L19.164 11.15L18.3 11.147C17.647 11.145 16.995 11.142 16.343 11.157C16.235 11.158 16.186 11.149 16.169 11.149C16.167 11.149 16.165 11.149 16.164 11.149C16.159 11.134 16.151 11.093 16.154 11.01C16.168 10.712 16.165 10.414 16.162 10.115L16.206 9.697C17.753 9.699 19.306 9.695 20.878 9.683C20.895 9.685 20.911 9.693 20.928 9.693C20.947 9.693 20.964 9.685 20.982 9.682C21.371 9.68 21.752 9.68 22.143 9.675ZM16.208 8.897C15.687 8.897 15.362 9.221 15.361 9.744L15.363 10.123C15.365 10.407 15.368 10.691 15.356 10.976C15.341 11.293 15.417 11.532 15.586 11.705C15.737 11.859 15.925 11.919 16.1 11.943V12.045H1.06904V8.125H20.529V8.898C19.089 8.898 17.649 8.899 16.208 8.897ZM7.53504 2.156C7.53504 1.444 8.11404 0.865999 8.82604 0.865999H12.786C13.497 0.865999 14.076 1.444 14.076 2.156V3.303H7.53504V2.156ZM2.04904 4.104H6.73504V5.054H6.15504C5.93404 5.054 5.75504 5.234 5.75504 5.454C5.75504 5.674 5.93404 5.854 6.15504 5.854H7.13004C7.13204 5.854 7.13304 5.855 7.13504 5.855C7.13704 5.855 7.13804 5.855 7.14004 5.855H8.12404C8.34504 5.855 8.52404 5.675 8.52404 5.455C8.52404 5.235 8.34504 5.055 8.12404 5.055H7.53504V4.105H14.076V5.055H13.488C13.267 5.055 13.088 5.235 13.088 5.455C13.088 5.675 13.267 5.855 13.488 5.855H14.471C14.473 5.855 14.474 5.856 14.476 5.856C14.478 5.856 14.479 5.855 14.481 5.855H15.457C15.678 5.855 15.857 5.675 15.857 5.455C15.857 5.235 15.678 5.055 15.457 5.055H14.876V4.105H19.55C20.091 4.105 20.53 4.54 20.53 5.075V7.324H1.06904V5.074C1.06904 4.539 1.50904 4.104 2.04904 4.104ZM2.04904 16.014C1.50804 16.014 1.06904 15.579 1.06904 15.044V12.845H15.681C14.972 13.285 14.579 13.965 14.579 14.865V16.014H2.04904ZM10.949 21.933C10.949 21.397 11.386 20.96 11.922 20.96H12.931V22.904H11.922C11.386 22.904 10.949 22.469 10.949 21.933ZM13.73 22.904V20.96H14.739C15.275 20.96 15.712 21.397 15.712 21.933C15.712 22.322 15.479 22.653 15.148 22.808C15.134 22.813 15.122 22.824 15.109 22.83C14.995 22.877 14.87 22.905 14.739 22.905H13.73V22.904ZM22.93 21.523L21.845 21.524L20.888 21.522C20.075 21.52 19.262 21.518 18.448 21.531C18.438 21.532 18.428 21.532 18.419 21.532C18.392 21.531 18.372 21.532 18.358 21.532C18.357 21.511 18.355 21.482 18.356 21.444C18.376 20.21 18.375 18.971 18.357 17.734C18.357 17.689 18.358 17.657 18.356 17.638C18.377 17.636 18.39 17.632 18.444 17.635C19.939 17.644 21.434 17.648 22.929 17.644L22.93 21.523ZM22.93 16.845C21.436 16.848 19.943 16.845 18.45 16.835C18.273 16.836 17.98 16.856 17.777 17.061C17.576 17.263 17.554 17.535 17.558 17.748C17.576 18.977 17.577 20.205 17.557 21.433C17.554 21.627 17.574 21.91 17.778 22.114C17.983 22.317 18.267 22.335 18.463 22.334C19.271 22.319 20.078 22.32 20.886 22.325L21.845 22.327L22.93 22.325C22.916 22.892 22.66 23.136 22.08 23.136H16.23C16.162 23.136 16.114 23.119 16.055 23.112C16.336 22.798 16.512 22.388 16.512 21.935C16.512 21.184 16.041 20.544 15.38 20.286V14.867C15.38 14.13 15.693 13.652 16.433 13.34C16.859 13.191 16.921 12.911 16.9 12.747V11.956C17.366 11.952 17.832 11.948 18.297 11.95L19.164 11.953L19.983 11.951C20.46 11.948 20.935 11.952 21.411 11.956L21.413 12.703C21.39 12.911 21.452 13.19 21.944 13.365C22.617 13.652 22.931 14.13 22.931 14.867L22.93 16.845Z" fill="black"/>
<path d="M19.593 19.984H20.243V20.633C20.243 20.854 20.422 21.033 20.643 21.033C20.864 21.033 21.043 20.853 21.043 20.633V19.984H21.693C21.914 19.984 22.093 19.804 22.093 19.584C22.093 19.364 21.914 19.184 21.693 19.184H21.043V18.535C21.043 18.314 20.864 18.135 20.643 18.135C20.422 18.135 20.243 18.315 20.243 18.535V19.184H19.593C19.372 19.184 19.193 19.364 19.193 19.584C19.193 19.804 19.373 19.984 19.593 19.984Z" fill="black"/>
<path d="M8.3621 17.473C7.1981 17.473 6.2511 18.42 6.2511 19.584C6.2511 20.748 7.1981 21.695 8.3621 21.695C9.5261 21.695 10.4731 20.748 10.4731 19.584C10.4731 18.42 9.5261 17.473 8.3621 17.473ZM7.0511 19.584C7.0511 19.003 7.4381 18.526 7.9621 18.354V20.813C7.4371 20.642 7.0511 20.165 7.0511 19.584ZM8.7621 20.814V18.355C9.2871 18.526 9.6731 19.004 9.6731 19.585C9.6731 20.166 9.2861 20.642 8.7621 20.814Z" fill="black"/>
</g>
<defs>
<clipPath id="clip0_36_3">
<rect width="24" height="24" fill="white"/>
</clipPath>
</defs>
</svg>
