<svg width="30" height="26" viewBox="0 0 30 26" fill="none" xmlns="http://www.w3.org/2000/svg">
<g clip-path="url(#clip0_37_10)">
<path d="M29.4117 0H10.5881C10.4321 0 10.2825 0.0632142 10.1722 0.175736C10.0619 0.288258 9.99991 0.44087 9.99991 0.599999V8.45399C9.88236 8.42387 9.76215 8.40578 9.64108 8.39999H5.52344C5.30791 8.41042 5.09737 8.46967 4.9071 8.57346C4.71683 8.67724 4.55161 8.82295 4.42344 8.99999L0.894027 13.8C0.772332 13.9544 0.682502 14.1324 0.629938 14.3231C0.577373 14.5139 0.563157 14.7135 0.588145 14.91C0.616695 15.1066 0.683428 15.2955 0.784435 15.4655C0.885442 15.6355 1.01869 15.7832 1.17638 15.9C1.49201 16.1282 1.88141 16.2243 2.2644 16.1685C2.6474 16.1127 2.99484 15.9092 3.2352 15.6L4.52932 13.842L4.38226 15.39L2.71756 18.942C2.67119 19.0363 2.65003 19.1415 2.65623 19.2468C2.66243 19.3522 2.69576 19.454 2.75285 19.542C2.8053 19.6276 2.87808 19.6983 2.96446 19.7476C3.05083 19.7969 3.148 19.8232 3.24697 19.824H5.29403V23.724C5.29403 24.0025 5.37008 24.2756 5.51366 24.5126C5.65724 24.7495 5.86267 24.941 6.10695 25.0656C6.35122 25.1902 6.62468 25.2429 6.89668 25.2179C7.16868 25.1929 7.42848 25.0911 7.64697 24.924C7.86545 25.0911 8.12525 25.1929 8.39725 25.2179C8.66925 25.2429 8.94271 25.1902 9.18699 25.0656C9.43126 24.941 9.6367 24.7495 9.78028 24.5126C9.92386 24.2756 9.99991 24.0025 9.99991 23.724V19.8H12.0587C12.1572 19.7998 12.254 19.7745 12.3403 19.7262C12.4266 19.678 12.4997 19.6085 12.5528 19.524C12.6056 19.44 12.6371 19.3438 12.6443 19.2443C12.6514 19.1448 12.6342 19.045 12.594 18.954L11.0881 15.552L10.8587 13.752L10.9234 13.836C11.0543 13.9957 11.2156 14.1264 11.3977 14.2203C11.5797 14.3142 11.7786 14.3692 11.9823 14.382H12.0587C12.252 14.3827 12.4435 14.3443 12.6222 14.2691C12.8009 14.194 12.9633 14.0835 13.0999 13.944L13.847 13.2H29.4117C29.5677 13.2 29.7173 13.1368 29.8276 13.0243C29.9379 12.9117 29.9999 12.7591 29.9999 12.6V0.599999C29.9999 0.44087 29.9379 0.288258 29.8276 0.175736C29.7173 0.0632142 29.5677 0 29.4117 0ZM15.8823 10.2C15.8655 10.1154 15.8399 10.0329 15.8058 9.95399L18.9764 6.72599C19.0871 6.61301 19.1494 6.45978 19.1494 6.29999C19.1494 6.14021 19.0871 5.98698 18.9764 5.874C18.8656 5.76101 18.7154 5.69754 18.5587 5.69754C18.4021 5.69754 18.2518 5.76101 18.1411 5.874L14.9764 9.10799C14.7105 9.00156 14.42 8.97608 14.1402 9.03465C13.8604 9.09323 13.6032 9.23333 13.3999 9.43799L12.9705 9.87599V3H27.0587V10.2H15.8823ZM12.0764 13.2C12.0347 13.1984 11.9939 13.188 11.9564 13.1694C11.9189 13.1508 11.8857 13.1244 11.8587 13.092L10.4587 11.4C10.3771 11.2983 10.2649 11.2268 10.1395 11.1964C10.0141 11.1661 9.88238 11.1786 9.76461 11.232C9.65274 11.2827 9.55918 11.3678 9.49697 11.4754C9.43476 11.5829 9.407 11.7076 9.41755 11.832L9.9352 15.786C9.94106 15.8444 9.95699 15.9013 9.98226 15.954L11.1764 18.6H9.41167C9.25566 18.6 9.10604 18.6632 8.99573 18.7757C8.88541 18.8882 8.82344 19.0409 8.82344 19.2V23.7C8.82344 23.7795 8.79245 23.8559 8.73729 23.9121C8.68213 23.9684 8.60732 24 8.52932 24C8.45131 24 8.3765 23.9684 8.32135 23.9121C8.26619 23.8559 8.2352 23.7795 8.2352 23.7V19.2C8.2352 19.0409 8.17323 18.8882 8.06291 18.7757C7.9526 18.6632 7.80298 18.6 7.64697 18.6C7.49096 18.6 7.34134 18.6632 7.23102 18.7757C7.12071 18.8882 7.05873 19.0409 7.05873 19.2V23.7C7.05873 23.7795 7.02774 23.8559 6.97259 23.9121C6.91743 23.9684 6.84262 24 6.76461 24C6.68661 24 6.6118 23.9684 6.55664 23.9121C6.50148 23.8559 6.4705 23.7795 6.4705 23.7V19.2C6.4705 19.0409 6.40852 18.8882 6.29821 18.7757C6.18789 18.6632 6.03827 18.6 5.88226 18.6H4.18226L5.48814 15.81C5.51804 15.748 5.53601 15.6808 5.54108 15.612L5.88226 11.82C5.89101 11.6928 5.85981 11.5661 5.79317 11.4582C5.72653 11.3503 5.62793 11.2669 5.51167 11.22C5.39231 11.1728 5.26109 11.1665 5.13794 11.2023C5.01479 11.238 4.90643 11.3137 4.82932 11.418L2.29403 14.88C2.27479 14.9163 2.24749 14.9475 2.21431 14.971C2.18113 14.9946 2.14299 15.0099 2.10296 15.0158C2.06293 15.0216 2.02211 15.0178 1.98378 15.0046C1.94546 14.9915 1.91069 14.9693 1.88226 14.94C1.82167 14.8899 1.78007 14.8199 1.76462 14.742C1.75929 14.7029 1.76176 14.663 1.77186 14.6249C1.78197 14.5867 1.79951 14.5511 1.82344 14.52L5.35285 9.71999C5.37987 9.68273 5.41547 9.65284 5.45651 9.63296C5.49755 9.61307 5.54276 9.60381 5.58814 9.60599H9.5705C9.62537 9.59669 9.68167 9.60172 9.73412 9.6206C9.78658 9.63949 9.8335 9.67162 9.8705 9.71399L11.6705 11.946C11.7223 12.011 11.7868 12.0643 11.86 12.1023C11.9332 12.1403 12.0133 12.1623 12.0954 12.1669C12.1774 12.1714 12.2594 12.1583 12.3362 12.1286C12.4129 12.0988 12.4827 12.0529 12.5411 11.994L14.2058 10.296C14.4646 10.026 14.8823 10.452 14.6176 10.716L13.1823 12.18L12.2646 13.116C12.2403 13.1501 12.2068 13.1763 12.1681 13.1912C12.1294 13.2061 12.0873 13.2092 12.047 13.2H12.0764ZM28.8234 12H15.0234L15.4528 11.562C15.4991 11.5107 15.5424 11.4566 15.5823 11.4H27.647C27.803 11.4 27.9526 11.3368 28.0629 11.2243C28.1732 11.1117 28.2352 10.9591 28.2352 10.8V2.4C28.2352 2.24087 28.1732 2.08826 28.0629 1.97573C27.9526 1.86321 27.803 1.8 27.647 1.8H12.3528C12.1968 1.8 12.0472 1.86321 11.9369 1.97573C11.8266 2.08826 11.7646 2.24087 11.7646 2.4V10.2L11.1764 9.47399V1.2H28.8234V12Z" fill="black"/>
<path d="M7.64689 3C7.18152 3 6.7266 3.14076 6.33966 3.40447C5.95272 3.66819 5.65114 4.04302 5.47305 4.48156C5.29496 4.9201 5.24837 5.40266 5.33916 5.86821C5.42995 6.33377 5.65404 6.76141 5.98311 7.09705C6.31217 7.4327 6.73143 7.66128 7.18785 7.75388C7.64428 7.84649 8.11738 7.79896 8.54732 7.61731C8.97726 7.43566 9.34474 7.12804 9.60329 6.73337C9.86183 6.33869 9.99983 5.87467 9.99983 5.4C9.99983 4.76348 9.75193 4.15303 9.31067 3.70294C8.86941 3.25286 8.27093 3 7.64689 3ZM7.64689 6.6C7.4142 6.6 7.18675 6.52962 6.99328 6.39776C6.79981 6.2659 6.64902 6.07849 6.55997 5.85922C6.47093 5.63995 6.44763 5.39867 6.49302 5.16589C6.53842 4.93311 6.65047 4.71929 6.815 4.55147C6.97953 4.38365 7.18916 4.26936 7.41737 4.22306C7.64558 4.17675 7.88213 4.20052 8.0971 4.29134C8.31208 4.38217 8.49582 4.53598 8.62509 4.73331C8.75436 4.93065 8.82336 5.16266 8.82336 5.4C8.82336 5.71826 8.69941 6.02348 8.47878 6.24853C8.25815 6.47357 7.95891 6.6 7.64689 6.6Z" fill="black"/>
</g>
<defs>
<clipPath id="clip0_37_10">
<rect width="30" height="25.8" fill="white"/>
</clipPath>
</defs>
</svg>
